<?xml version="1.0" standalone="no"?>
<!DOCTYPE svg PUBLIC "-//W3C//DTD SVG 20010904//EN"
 "http://www.w3.org/TR/2001/REC-SVG-20010904/DTD/svg10.dtd">
<svg version="1.0" xmlns="http://www.w3.org/2000/svg"
 width="81.000000pt" height="83.000000pt" viewBox="0 0 81.000000 83.000000"
 preserveAspectRatio="xMidYMid meet">

<g transform="translate(0.000000,83.000000) scale(0.100000,-0.100000)"
fill="#000000" stroke="none">
<path d="M375 560 c-16 -4 -56 -8 -88 -9 -41 -1 -59 -5 -63 -16 -9 -23 5 -65
21 -65 18 0 20 -21 3 -38 -9 -9 -7 -13 5 -18 9 -3 16 -16 16 -28 -1 -16 -2
-17 -6 -3 -5 20 -24 22 -41 5 -9 -9 -4 -17 20 -35 20 -14 26 -23 16 -23 -9 0
-19 8 -22 17 -6 15 -8 15 -22 1 -14 -13 -12 -20 16 -62 17 -25 35 -46 39 -46
4 0 38 -29 77 -64 l70 -64 54 55 c30 30 67 61 81 68 15 8 39 35 53 60 22 41
23 47 9 52 -9 4 -19 1 -21 -5 -2 -7 -10 -12 -18 -12 -10 0 -5 9 13 26 25 23
26 27 11 38 -26 19 -34 65 -14 79 9 7 18 26 19 42 l2 30 -70 6 c-38 4 -83 9
-100 12 -16 3 -43 2 -60 -3z m105 -20 c0 -5 -6 -10 -14 -10 -24 0 -26 -14 -10
-65 16 -55 7 -76 -21 -45 -16 17 -17 25 -7 40 14 23 6 50 -14 50 -21 0 -28
-27 -16 -54 8 -19 7 -26 -9 -40 -11 -9 -21 -16 -24 -16 -10 0 -5 38 10 80 14
40 14 42 -5 47 -41 11 -18 23 45 23 37 0 65 -4 65 -10z m-115 -30 c3 -5 1 -10
-4 -10 -6 0 -11 5 -11 10 0 6 2 10 4 10 3 0 8 -4 11 -10z m115 0 c0 -5 -4 -10
-10 -10 -5 0 -10 5 -10 10 0 6 5 10 10 10 6 0 10 -4 10 -10z m-39 -106 c10
-13 10 -17 -2 -25 -8 -5 -18 -9 -24 -9 -5 0 -16 4 -24 9 -12 8 -12 12 -2 25 8
9 19 16 26 16 7 0 18 -7 26 -16z m-111 -134 c12 -17 26 -28 31 -25 5 4 9 1 9
-4 0 -19 -15 -12 -49 24 -18 19 -28 35 -22 35 5 0 19 -14 31 -30z"/>
</g>
</svg>
